<svg width="465" height="265" viewBox="0 0 465 265" fill="none" xmlns="http://www.w3.org/2000/svg">
<rect width="464.391" height="264.187" transform="translate(0.608704 0.0970459)" fill="white"/>
<path d="M120.596 109.675H156.843V96.0827H120.596C100.574 96.0827 84.3488 112.308 84.3488 132.331C84.3488 152.354 100.574 168.579 120.596 168.579C138.11 168.579 152.726 156.156 156.106 139.639C156.141 139.468 156.171 139.298 156.201 139.132C156.618 136.94 156.838 134.643 156.838 132.336V125.54H120.591V139.132H142.208C139.319 148.321 130.737 154.992 120.591 154.992C108.082 154.992 97.9358 144.85 97.9358 132.336C97.9358 119.822 108.077 109.68 120.591 109.68L120.596 109.675Z" fill="#26C86E"/>
<path d="M201.035 109.75L221.363 109.66V96.0827L201.035 96.173C181.043 96.173 164.833 112.379 164.833 132.376C164.833 152.374 181.038 168.579 201.035 168.579H221.363V155.002H201.035C188.541 155.002 178.41 144.87 178.41 132.376C178.41 119.882 188.541 109.75 201.035 109.75Z" fill="#26C86E"/>
<path d="M265.54 96.0827C245.523 96.0827 229.293 112.308 229.293 132.331C229.293 152.354 245.518 168.579 265.54 168.579C285.562 168.579 301.787 152.354 301.787 132.331C301.787 112.308 285.557 96.0827 265.54 96.0827ZM265.54 154.982C253.031 154.982 242.885 144.84 242.885 132.326C242.885 119.812 253.026 109.67 265.54 109.67C278.054 109.67 288.195 119.812 288.195 132.326C288.195 144.84 278.054 154.982 265.54 154.982Z" fill="#26C86E"/>
<path d="M345.312 96.0827C325.295 96.0827 309.065 112.308 309.065 132.331C309.065 152.354 325.29 168.579 345.312 168.579C365.334 168.579 381.559 152.354 381.559 132.331C381.559 112.308 365.329 96.0827 345.312 96.0827ZM345.312 154.982C332.803 154.982 322.657 144.84 322.657 132.326C322.657 119.812 332.798 109.67 345.312 109.67C357.826 109.67 367.967 119.812 367.967 132.326C367.967 144.84 357.826 154.982 345.312 154.982Z" fill="#26C86E"/>
</svg>
